<?xml version="1.0" encoding="UTF-8"?>
<svg width="25" height="18" version="1.1" viewBox="0 0 6.6145832 4.7625001" xmlns="http://www.w3.org/2000/svg" xmlns:cc="http://creativecommons.org/ns#" xmlns:dc="http://purl.org/dc/elements/1.1/" xmlns:rdf="http://www.w3.org/1999/02/22-rdf-syntax-ns#">
<metadata>
<rdf:RDF>
<cc:Work rdf:about="">
<dc:format>image/svg+xml</dc:format>
<dc:type rdf:resource="http://purl.org/dc/dcmitype/StillImage"/>
<dc:title/>
</cc:Work>
</rdf:RDF>
</metadata>
<g transform="translate(0 -292.24)">
<g transform="matrix(1.2379 0 0 1.2345 -228.3 894.37)" fill="#c6ab90" stroke-width="1.1822">
<path d="m188.25-487.76a0.15665 0.15665 0 0 0 -0.15039 0.11719l-0.63477 2.3633h-2.2305l-0.38476-1.4356h2.8691a0.15722 0.15722 0 1 0 0 -0.31445h-3.0723a0.15665 0.15665 0 0 0 -0.15234 0.19727l0.46875 1.75a0.15665 0.15665 0 0 0 0.15234 0.11523h2.4707a0.15665 0.15665 0 0 0 0.15039 -0.11523l0.63477-2.3633h1.1699a0.15722 0.15722 0 1 0 0 -0.31445z" color="#000000" color-rendering="auto" dominant-baseline="auto" image-rendering="auto" shape-rendering="auto" solid-color="#000000" style="font-feature-settings:normal;font-variant-alternates:normal;font-variant-caps:normal;font-variant-ligatures:normal;font-variant-numeric:normal;font-variant-position:normal;isolation:auto;mix-blend-mode:normal;shape-padding:0;text-decoration-color:#000000;text-decoration-line:none;text-decoration-style:solid;text-indent:0;text-orientation:mixed;text-transform:none;white-space:normal"/>
<path d="m185.41-484.8a0.15665 0.15665 0 0 0 0.0156 0.3125h1.9453a0.15665 0.15665 0 1 0 0 -0.3125h-1.9453a0.15665 0.15665 0 0 0 -0.0156 0z" color="#000000" color-rendering="auto" dominant-baseline="auto" image-rendering="auto" shape-rendering="auto" solid-color="#000000" style="font-feature-settings:normal;font-variant-alternates:normal;font-variant-caps:normal;font-variant-ligatures:normal;font-variant-numeric:normal;font-variant-position:normal;isolation:auto;mix-blend-mode:normal;shape-padding:0;text-decoration-color:#000000;text-decoration-line:none;text-decoration-style:solid;text-indent:0;text-orientation:mixed;text-transform:none;white-space:normal"/>
<circle cx="185.36" cy="-484.18" r=".25892" style="paint-order:markers fill stroke"/>
<circle cx="187.42" cy="-484.18" r=".25892" style="paint-order:markers fill stroke"/>
</g>
</g>
</svg>
